<?xml version="1.0" encoding="UTF-8"?>
<svg width="32px" height="32px" viewBox="0 0 32 32" xmlns="http://www.w3.org/2000/svg" xmlns:xlink="http://www.w3.org/1999/xlink" version="1.1">
 <path id="circle" d="M31.625 16 C31.625 7.371 24.629 0.375 16 0.375 7.371 0.375 0.375 7.371 0.375 16 0.375 24.629 7.371 31.625 16 31.625 24.629 31.625 31.625 24.629 31.625 16 Z" fill="#ffffff" fill-opacity="1" stroke="none"/>
 <path id="Shape" d="M20.607 13.538 C20.322 13.538 20.138 13.534 20.063 13.527 20.001 13.521 19.905 13.511 19.848 13.504 19.792 13.497 19.695 13.482 19.633 13.472 19.571 13.461 19.465 13.44 19.398 13.426 19.332 13.411 19.231 13.384 19.173 13.367 19.116 13.35 19.025 13.32 18.97 13.3 18.916 13.281 18.801 13.23 18.715 13.188 18.619 13.141 18.517 13.084 18.453 13.041 18.395 13.002 18.308 12.937 18.26 12.896 18.212 12.855 18.143 12.787 18.106 12.744 18.069 12.702 18.016 12.636 17.988 12.597 17.96 12.559 17.896 12.454 17.844 12.363 17.793 12.273 17.71 12.124 17.66 12.031 17.61 11.939 17.505 11.735 17.427 11.578 17.349 11.421 17.248 11.214 17.204 11.117 17.159 11.021 17.094 10.875 17.059 10.793 17.023 10.711 16.958 10.555 16.914 10.445 16.87 10.336 16.801 10.158 16.762 10.051 16.722 9.943 16.662 9.776 16.63 9.68 16.598 9.583 16.548 9.427 16.519 9.332 16.491 9.237 16.459 9.123 16.448 9.078 16.438 9.033 16.43 8.984 16.432 8.969 16.433 8.95 16.47 8.88 16.546 8.751 16.658 8.563 16.659 8.56 16.72 8.384 16.753 8.287 16.792 8.184 16.807 8.156 16.821 8.128 16.877 8.039 16.931 7.957 16.985 7.875 17.082 7.732 17.146 7.64 17.264 7.472 17.264 7.472 17.407 7.349 17.486 7.281 17.557 7.218 17.565 7.208 17.578 7.191 17.578 7.186 17.553 7.042 17.528 6.893 17.528 6.893 17.576 6.741 17.603 6.658 17.636 6.541 17.649 6.48 17.665 6.405 17.676 6.324 17.684 6.219 17.69 6.135 17.7 6.052 17.706 6.035 17.711 6.018 17.754 5.92 17.8 5.816 17.847 5.713 17.914 5.564 17.95 5.484 17.993 5.387 18.051 5.23 18.129 5 18.244 4.66 18.244 4.66 18.42 4.328 18.537 4.109 18.63 3.944 18.697 3.84 18.767 3.732 18.812 3.671 18.842 3.642 18.867 3.619 18.899 3.592 18.914 3.582 18.931 3.571 18.986 3.552 19.054 3.535 19.156 3.51 19.173 3.508 19.229 3.512 19.278 3.517 19.303 3.524 19.34 3.543 19.365 3.556 19.427 3.591 19.477 3.621 19.526 3.65 19.574 3.681 19.583 3.69 19.592 3.7 19.618 3.76 19.641 3.824 19.665 3.893 19.684 3.96 19.686 3.987 19.688 4.011 19.685 4.053 19.68 4.078 19.675 4.104 19.661 4.148 19.649 4.178 19.637 4.207 19.589 4.294 19.542 4.372 19.457 4.514 19.457 4.514 19.266 4.68 19.16 4.771 19.054 4.864 19.029 4.886 18.983 4.926 18.983 4.926 18.961 5.078 18.948 5.162 18.931 5.273 18.922 5.324 18.91 5.398 18.898 5.44 18.863 5.523 18.831 5.601 18.808 5.644 18.773 5.689 18.747 5.722 18.71 5.77 18.691 5.796 18.657 5.839 18.652 5.853 18.606 6.023 18.558 6.198 18.552 6.212 18.465 6.391 18.378 6.573 18.368 6.588 18.148 6.914 17.953 7.202 17.921 7.254 17.924 7.272 17.927 7.284 17.941 7.32 17.955 7.352 17.97 7.384 17.992 7.419 18.005 7.43 18.018 7.441 18.058 7.469 18.094 7.494 18.134 7.521 18.202 7.556 18.265 7.582 18.37 7.625 18.37 7.625 18.524 7.637 18.673 7.647 18.689 7.647 18.937 7.629 19.196 7.609 19.196 7.609 19.26 7.632 19.295 7.644 19.426 7.691 19.551 7.737 19.675 7.782 19.904 7.866 20.059 7.924 20.323 8.023 20.355 8.037 20.596 8.161 20.853 8.293 20.853 8.293 20.956 8.412 21.04 8.508 21.071 8.551 21.121 8.638 21.154 8.698 21.186 8.751 21.191 8.756 21.196 8.762 21.291 8.781 21.403 8.8 21.605 8.834 21.605 8.834 21.836 8.941 21.963 9.001 22.126 9.08 22.2 9.118 22.333 9.188 22.333 9.188 22.401 9.265 22.469 9.343 22.469 9.343 22.517 9.478 22.563 9.609 22.564 9.617 22.575 9.738 22.584 9.854 22.584 9.865 22.572 9.891 22.564 9.906 22.51 9.99 22.452 10.078 22.391 10.17 22.305 10.285 22.253 10.347 22.16 10.456 22.16 10.456 22.027 10.537 21.895 10.619 21.895 10.619 21.797 10.614 21.743 10.612 21.663 10.607 21.618 10.604 21.537 10.599 21.537 10.599 21.543 10.618 21.546 10.628 21.552 10.735 21.555 10.855 21.558 10.976 21.561 11.196 21.561 11.344 21.562 11.571 21.565 11.649 21.583 11.84 21.604 12.066 21.604 12.066 21.551 12.285 21.504 12.481 21.5 12.505 21.509 12.524 21.515 12.535 21.579 12.629 21.651 12.731 21.724 12.834 21.789 12.924 21.796 12.932 21.804 12.939 21.847 12.956 21.893 12.968 21.939 12.981 22.001 13.004 22.032 13.021 22.063 13.037 22.1 13.061 22.113 13.074 22.138 13.097 22.138 13.099 22.156 13.245 22.171 13.371 22.172 13.394 22.163 13.403 22.156 13.409 22.1 13.422 22.027 13.433 21.958 13.444 21.834 13.462 21.75 13.472 21.666 13.483 21.526 13.499 21.438 13.507 21.349 13.516 21.223 13.527 21.158 13.531 21.092 13.535 20.844 13.539 20.607 13.538 Z M22.827 13.094 C22.749 13.093 22.724 13.091 22.699 13.079 22.682 13.071 22.651 13.053 22.63 13.04 22.603 13.022 22.593 13.011 22.595 13 22.597 12.992 22.612 12.97 22.63 12.951 22.647 12.933 22.678 12.891 22.698 12.858 22.735 12.798 22.735 12.798 22.803 12.77 22.84 12.754 22.927 12.727 22.996 12.711 23.065 12.694 23.221 12.661 23.344 12.637 23.466 12.613 23.573 12.591 23.581 12.589 23.588 12.586 23.597 12.579 23.599 12.573 23.602 12.567 23.595 12.552 23.584 12.541 23.573 12.529 23.559 12.51 23.551 12.499 23.538 12.478 23.539 12.475 23.573 12.389 23.592 12.341 23.62 12.257 23.636 12.203 23.651 12.149 23.681 12.062 23.704 12.01 23.742 11.919 23.747 11.912 23.796 11.869 23.825 11.844 23.916 11.78 24 11.727 24.151 11.629 24.151 11.629 24.292 11.593 24.37 11.573 24.519 11.534 24.623 11.508 24.812 11.459 24.812 11.459 25.003 11.49 25.193 11.521 25.193 11.521 25.309 11.59 25.373 11.628 25.433 11.666 25.443 11.675 25.452 11.684 25.477 11.727 25.499 11.771 25.527 11.828 25.541 11.867 25.547 11.904 25.551 11.933 25.554 11.975 25.555 11.996 25.555 12.018 25.548 12.072 25.539 12.117 25.53 12.162 25.518 12.225 25.512 12.257 25.501 12.311 25.496 12.321 25.432 12.405 25.367 12.49 25.36 12.496 25.309 12.52 25.279 12.533 25.21 12.562 25.156 12.584 25.103 12.606 24.998 12.645 24.923 12.672 24.805 12.713 24.773 12.729 24.673 12.791 24.61 12.83 24.527 12.877 24.488 12.895 24.45 12.913 24.374 12.946 24.32 12.969 24.225 13.008 24.22 13.009 24.098 13.02 23.995 13.028 23.951 13.028 23.837 13.019 23.703 13.009 23.695 13.008 23.548 12.961 23.44 12.927 23.388 12.914 23.368 12.916 23.352 12.918 23.246 12.959 23.131 13.007 22.923 13.094 22.923 13.094 22.827 13.094 Z M18.593 12.511 C18.632 12.5 18.72 12.476 18.789 12.457 18.858 12.438 18.965 12.408 19.026 12.39 19.087 12.373 19.188 12.342 19.25 12.323 19.312 12.303 19.388 12.276 19.418 12.262 19.448 12.248 19.501 12.218 19.535 12.195 19.57 12.173 19.628 12.124 19.664 12.087 19.701 12.05 19.744 11.997 19.761 11.969 19.777 11.941 19.802 11.886 19.815 11.848 19.838 11.781 19.839 11.771 19.839 11.656 19.839 11.555 19.835 11.511 19.814 11.393 19.8 11.314 19.775 11.184 19.758 11.104 19.741 11.023 19.719 10.925 19.709 10.887 19.691 10.816 19.691 10.816 19.656 10.814 19.637 10.813 19.477 10.824 19.301 10.839 19.033 10.863 18.965 10.871 18.889 10.89 18.838 10.903 18.764 10.926 18.725 10.942 18.685 10.957 18.624 10.986 18.59 11.006 18.555 11.025 18.504 11.06 18.476 11.083 18.447 11.105 18.408 11.143 18.389 11.166 18.369 11.188 18.341 11.227 18.326 11.25 18.311 11.274 18.29 11.315 18.279 11.34 18.268 11.366 18.253 11.415 18.245 11.449 18.234 11.498 18.23 11.543 18.23 11.654 18.23 11.77 18.234 11.811 18.248 11.88 18.257 11.927 18.28 12.01 18.297 12.066 18.315 12.121 18.347 12.207 18.369 12.257 18.39 12.307 18.426 12.381 18.448 12.422 18.47 12.463 18.496 12.504 18.505 12.513 18.522 12.53 18.522 12.53 18.593 12.511 Z M23.072 9.271 C23 9.276 23 9.276 22.967 9.241 22.948 9.222 22.901 9.168 22.86 9.121 22.787 9.036 22.787 9.036 22.791 8.965 22.793 8.926 22.799 8.886 22.804 8.875 22.81 8.864 22.863 8.814 22.922 8.762 23.027 8.672 23.031 8.668 23.054 8.612 23.07 8.572 23.101 8.524 23.157 8.451 23.21 8.384 23.254 8.316 23.284 8.258 23.309 8.208 23.336 8.159 23.343 8.148 23.356 8.131 23.363 8.129 23.43 8.125 23.503 8.121 23.503 8.121 23.621 7.979 23.685 7.901 23.896 7.671 24.09 7.468 24.283 7.266 24.45 7.094 24.46 7.087 24.473 7.079 24.497 7.074 24.527 7.074 24.574 7.074 24.574 7.074 24.58 7.008 24.583 6.971 24.589 6.898 24.592 6.844 24.599 6.747 24.599 6.747 24.657 6.695 24.689 6.666 24.773 6.592 24.845 6.53 24.964 6.426 24.995 6.404 25.208 6.273 25.336 6.194 25.454 6.123 25.47 6.114 25.499 6.098 25.499 6.098 25.564 6.115 25.6 6.125 25.672 6.145 25.725 6.16 25.813 6.185 25.829 6.193 25.905 6.245 25.973 6.292 26.004 6.322 26.074 6.402 26.121 6.456 26.166 6.511 26.174 6.523 26.182 6.535 26.19 6.562 26.192 6.583 26.195 6.612 26.189 6.644 26.17 6.711 26.155 6.76 26.125 6.856 26.103 6.923 26.062 7.046 26.062 7.046 25.869 7.247 25.763 7.357 25.638 7.482 25.591 7.523 25.544 7.564 25.497 7.602 25.485 7.607 25.474 7.613 25.403 7.628 25.328 7.641 25.253 7.655 25.184 7.67 25.176 7.675 25.167 7.681 25.121 7.751 25.074 7.831 24.988 7.977 24.988 7.977 24.852 8.094 24.776 8.158 24.556 8.333 24.362 8.483 24.168 8.634 23.92 8.818 23.811 8.893 23.658 8.999 23.567 9.055 23.408 9.141 23.295 9.202 23.19 9.255 23.174 9.258 23.158 9.262 23.112 9.268 23.072 9.271 Z M22.473 6.344 C22.841 5.74 22.987 5.499 23.035 5.42 23.116 5.286 23.123 5.272 23.127 5.226 23.13 5.198 23.143 5.139 23.156 5.094 23.178 5.021 23.197 4.986 23.345 4.735 23.509 4.457 23.509 4.457 23.622 4.359 23.684 4.306 23.762 4.245 23.795 4.224 23.828 4.204 23.888 4.168 23.927 4.144 23.995 4.102 24.002 4.1 24.076 4.092 24.148 4.084 24.159 4.084 24.224 4.101 24.262 4.111 24.321 4.134 24.355 4.151 24.39 4.169 24.434 4.199 24.453 4.219 24.473 4.238 24.506 4.275 24.528 4.301 24.565 4.346 24.569 4.355 24.629 4.551 24.663 4.663 24.692 4.766 24.694 4.781 24.696 4.804 24.686 4.827 24.634 4.914 24.6 4.972 24.533 5.086 24.485 5.168 24.437 5.25 24.389 5.324 24.379 5.333 24.369 5.342 24.31 5.381 24.249 5.419 24.175 5.464 24.095 5.505 24.016 5.538 23.949 5.565 23.873 5.598 23.847 5.609 23.799 5.631 23.799 5.631 23.763 5.718 23.743 5.766 23.71 5.843 23.691 5.89 23.657 5.972 23.65 5.982 23.538 6.11 23.432 6.233 23.395 6.268 23.115 6.511 22.809 6.778 22.809 6.778 22.8 6.858 22.793 6.921 22.788 6.943 22.773 6.964 22.762 6.978 22.691 7.071 22.615 7.169 22.495 7.325 22.464 7.36 22.383 7.43 22.331 7.475 22.279 7.519 22.266 7.528 22.254 7.537 22.205 7.558 22.159 7.575 22.112 7.591 22.06 7.606 22.043 7.607 22.015 7.61 21.996 7.601 21.859 7.52 21.776 7.471 21.697 7.422 21.684 7.412 21.661 7.393 21.661 7.393 21.67 7.246 21.679 7.098 21.679 7.098 21.74 6.978 21.801 6.858 21.801 6.858 21.892 6.778 21.941 6.734 22.093 6.618 22.227 6.521 L22.473 6.344 Z M20.207 7.029 C20.187 7.031 20.16 7.016 20.031 6.926 19.947 6.867 19.866 6.805 19.85 6.788 19.833 6.769 19.815 6.739 19.808 6.715 19.797 6.68 19.795 6.655 19.8 6.557 19.803 6.494 19.809 6.429 19.812 6.413 19.815 6.397 19.864 6.299 19.921 6.195 19.977 6.092 20.05 5.968 20.083 5.922 20.118 5.871 20.161 5.821 20.19 5.796 20.238 5.756 20.238 5.756 20.313 5.761 20.353 5.764 20.392 5.768 20.398 5.77 20.405 5.771 20.415 5.77 20.421 5.766 20.431 5.76 20.43 5.743 20.418 5.642 20.403 5.525 20.403 5.525 20.436 5.471 20.457 5.435 20.49 5.397 20.531 5.36 20.579 5.317 20.604 5.286 20.636 5.231 20.659 5.192 20.692 5.13 20.709 5.093 20.733 5.043 20.765 4.998 20.841 4.906 20.897 4.84 20.976 4.741 21.018 4.688 21.068 4.623 21.106 4.564 21.129 4.516 21.149 4.475 21.204 4.357 21.253 4.254 21.301 4.151 21.396 3.96 21.463 3.83 21.571 3.621 21.595 3.581 21.664 3.493 21.718 3.424 21.767 3.372 21.821 3.324 21.901 3.256 21.901 3.256 21.937 3.26 21.957 3.263 22.048 3.281 22.141 3.301 22.233 3.321 22.322 3.34 22.338 3.345 22.362 3.351 22.384 3.371 22.457 3.454 22.535 3.543 22.549 3.563 22.559 3.601 22.565 3.625 22.589 3.69 22.611 3.746 22.651 3.847 22.651 3.847 22.629 3.886 22.617 3.908 22.586 3.962 22.56 4.006 22.534 4.05 22.468 4.14 22.413 4.206 22.324 4.315 22.292 4.346 22.073 4.535 21.941 4.65 21.803 4.771 21.767 4.804 21.703 4.863 21.703 4.863 21.677 4.954 21.655 5.032 21.646 5.052 21.617 5.088 21.598 5.111 21.454 5.282 21.297 5.468 21.134 5.662 21.006 5.82 20.998 5.839 20.99 5.857 20.961 5.98 20.933 6.113 20.896 6.287 20.863 6.418 20.815 6.574 20.779 6.695 20.743 6.799 20.736 6.806 20.729 6.813 20.652 6.851 20.566 6.891 20.48 6.93 20.37 6.977 20.32 6.994 20.271 7.011 20.22 7.027 20.207 7.029 Z" fill="#dd1b17" fill-opacity="1" stroke="none"/>
 <path id="Shape-1" d="M7.14 24.819 C7.166 24.52 7.166 24.52 7.204 24.445 7.234 24.388 7.254 24.361 7.292 24.327 7.318 24.303 7.403 24.239 7.479 24.184 7.617 24.086 7.617 24.086 7.77 24.039 7.853 24.013 7.997 23.969 8.088 23.941 8.205 23.905 8.257 23.886 8.266 23.875 8.273 23.866 8.332 23.772 8.399 23.666 8.515 23.48 8.523 23.469 8.613 23.381 8.703 23.293 8.713 23.286 8.836 23.219 8.965 23.149 8.965 23.149 9.09 22.995 9.208 22.85 9.223 22.834 9.378 22.704 9.537 22.569 9.548 22.561 9.909 22.336 L10.277 22.105 10.28 22.021 C10.282 21.937 10.282 21.937 10.225 21.842 10.182 21.769 10.148 21.724 10.081 21.652 9.993 21.559 9.993 21.559 9.854 21.485 9.736 21.423 9.675 21.397 9.451 21.316 L9.187 21.221 8.987 21.026 C8.876 20.919 8.674 20.723 8.537 20.59 8.302 20.361 8.278 20.335 8.103 20.119 8.001 19.993 7.912 19.879 7.905 19.865 7.897 19.851 7.872 19.775 7.848 19.695 7.808 19.566 7.802 19.536 7.789 19.411 7.777 19.299 7.772 19.268 7.76 19.257 7.752 19.25 7.705 19.217 7.654 19.184 7.604 19.152 7.528 19.103 7.486 19.075 7.422 19.033 7.396 19.009 7.318 18.919 7.267 18.861 7.189 18.771 7.143 18.718 7.098 18.666 7.016 18.568 6.962 18.501 6.862 18.378 6.862 18.378 6.829 18.27 6.795 18.161 6.795 18.161 6.808 18.012 6.82 17.865 6.821 17.862 6.864 17.738 6.895 17.651 6.914 17.607 6.929 17.594 6.94 17.583 7.018 17.53 7.102 17.476 7.193 17.416 7.315 17.346 7.406 17.301 7.559 17.224 7.559 17.224 7.729 17.202 7.9 17.179 7.9 17.179 7.971 17.216 8.011 17.236 8.081 17.273 8.127 17.299 8.174 17.324 8.217 17.346 8.223 17.349 8.231 17.352 8.233 17.346 8.232 17.327 8.231 17.308 8.288 17.173 8.429 16.852 8.604 16.456 8.638 16.373 8.71 16.159 8.793 15.915 8.793 15.915 8.934 15.73 9.066 15.557 9.074 15.543 9.073 15.513 9.073 15.495 9.054 15.387 9.032 15.273 9.009 15.16 8.987 15.05 8.983 15.029 8.976 14.995 8.969 14.987 8.897 14.928 8.838 14.879 8.807 14.846 8.768 14.79 8.716 14.716 8.716 14.716 8.741 14.634 8.754 14.588 8.78 14.501 8.799 14.439 8.833 14.327 8.833 14.327 8.996 14.19 L9.159 14.053 9.293 14.101 C9.427 14.148 9.427 14.148 9.515 14.148 9.603 14.148 9.603 14.148 9.698 14.091 9.793 14.034 9.793 14.034 10.016 14.048 10.138 14.055 10.312 14.067 10.402 14.074 10.566 14.087 10.566 14.087 10.677 14.145 10.782 14.2 10.796 14.204 10.989 14.254 11.1 14.283 11.284 14.331 11.397 14.36 11.587 14.41 11.614 14.419 11.735 14.476 11.808 14.51 11.944 14.574 12.037 14.618 12.131 14.662 12.24 14.714 12.281 14.734 12.354 14.77 12.354 14.77 12.372 14.824 12.387 14.868 12.4 14.888 12.436 14.924 12.469 14.958 12.506 14.983 12.582 15.023 12.672 15.071 12.697 15.089 12.803 15.184 12.922 15.291 12.922 15.291 12.988 15.413 13.024 15.48 13.088 15.606 13.132 15.692 13.21 15.85 13.21 15.85 13.232 16.017 13.255 16.184 13.255 16.184 13.324 16.293 13.362 16.353 13.419 16.441 13.45 16.489 13.506 16.576 13.506 16.576 13.571 16.602 13.607 16.616 13.641 16.631 13.646 16.636 13.653 16.642 13.64 16.668 13.593 16.74 13.559 16.793 13.498 16.893 13.456 16.963 13.414 17.033 13.342 17.158 13.295 17.242 13.249 17.326 13.173 17.468 13.127 17.559 13.081 17.649 13.014 17.786 12.978 17.863 12.942 17.941 12.881 18.078 12.842 18.168 12.804 18.258 12.746 18.397 12.715 18.477 12.684 18.556 12.633 18.691 12.602 18.777 12.571 18.863 12.523 19.001 12.496 19.084 12.468 19.167 12.423 19.311 12.395 19.405 12.367 19.498 12.327 19.639 12.306 19.719 12.285 19.798 12.248 19.946 12.223 20.048 12.199 20.149 12.162 20.32 12.14 20.427 12.119 20.534 12.087 20.705 12.07 20.809 12.053 20.912 12.03 21.065 12.019 21.148 12.008 21.232 11.999 21.334 11.998 21.374 11.998 21.448 11.998 21.448 11.937 21.515 11.903 21.552 11.843 21.616 11.803 21.657 11.74 21.723 11.708 21.747 11.57 21.837 11.482 21.894 11.34 21.982 11.254 22.034 11.168 22.085 11.075 22.141 11.047 22.157 11.011 22.178 10.939 22.204 10.797 22.247 10.687 22.28 10.593 22.311 10.587 22.316 10.582 22.322 10.56 22.393 10.539 22.476 10.506 22.607 10.498 22.629 10.475 22.656 10.461 22.673 10.412 22.728 10.366 22.779 10.32 22.83 10.246 22.92 10.202 22.98 10.15 23.051 10.098 23.136 10.054 23.219 10.017 23.29 9.977 23.359 9.966 23.372 9.955 23.385 9.883 23.452 9.807 23.52 9.73 23.588 9.603 23.703 9.523 23.774 9.443 23.846 9.311 23.976 9.23 24.064 9.148 24.151 9.031 24.278 8.969 24.346 8.861 24.463 8.841 24.481 8.547 24.711 8.338 24.875 8.185 24.987 8.074 25.06 7.933 25.153 7.899 25.171 7.832 25.193 7.786 25.208 7.74 25.218 7.719 25.218 7.7 25.217 7.64 25.209 7.586 25.2 7.5 25.185 7.479 25.178 7.416 25.144 7.344 25.105 7.344 25.105 7.242 24.962 L7.14 24.819 Z M7.367 21.314 C7.66 21.309 7.784 21.312 7.867 21.319 7.974 21.327 8.007 21.332 8.016 21.343 8.023 21.35 8.074 21.431 8.129 21.523 8.184 21.616 8.236 21.711 8.243 21.736 8.255 21.773 8.256 21.789 8.249 21.83 8.243 21.866 8.225 21.909 8.178 22 8.141 22.071 8.104 22.133 8.087 22.149 8.071 22.165 7.988 22.231 7.902 22.297 7.816 22.363 7.702 22.444 7.648 22.477 7.578 22.519 7.529 22.543 7.475 22.56 7.404 22.582 7.398 22.583 7.389 22.57 7.383 22.563 7.348 22.541 7.31 22.52 7.242 22.484 7.242 22.484 7.231 22.51 7.226 22.524 7.209 22.577 7.195 22.628 7.168 22.721 7.168 22.721 7.106 22.765 7.057 22.799 7.026 22.814 6.964 22.833 6.899 22.852 6.873 22.866 6.816 22.906 6.777 22.934 6.723 22.977 6.695 23.002 6.655 23.039 6.614 23.064 6.504 23.119 6.427 23.158 6.302 23.222 6.227 23.262 6.102 23.329 6.08 23.345 5.978 23.433 5.917 23.487 5.829 23.563 5.783 23.603 5.737 23.644 5.644 23.721 5.576 23.776 5.509 23.83 5.399 23.919 5.332 23.973 5.238 24.049 5.186 24.084 5.094 24.133 5.008 24.18 4.948 24.206 4.87 24.231 4.812 24.249 4.756 24.266 4.747 24.268 4.735 24.271 4.687 24.24 4.555 24.144 4.458 24.073 4.364 24.002 4.346 23.986 4.315 23.958 4.312 23.95 4.273 23.821 4.233 23.685 4.233 23.685 4.242 23.614 4.247 23.575 4.251 23.499 4.252 23.446 4.254 23.349 4.254 23.349 4.374 23.264 4.463 23.201 4.533 23.159 4.643 23.104 4.766 23.043 4.819 23.021 4.94 22.984 5.02 22.96 5.204 22.903 5.347 22.859 5.608 22.779 5.608 22.779 5.669 22.702 5.73 22.625 5.73 22.625 5.889 22.547 5.976 22.505 6.125 22.432 6.221 22.385 6.316 22.339 6.465 22.266 6.551 22.223 6.707 22.145 6.707 22.145 6.771 22.056 6.806 22.008 6.88 21.907 6.934 21.831 6.989 21.756 7.074 21.648 7.123 21.592 7.173 21.535 7.248 21.449 7.29 21.401 L7.367 21.314 Z M3.926 21.142 C4.211 20.871 4.211 20.871 4.383 20.791 4.532 20.722 4.585 20.702 4.774 20.645 4.894 20.608 5.074 20.553 5.174 20.523 5.305 20.483 5.36 20.463 5.37 20.451 5.378 20.441 5.399 20.407 5.417 20.375 5.45 20.316 5.45 20.316 5.691 20.187 5.93 20.058 5.933 20.056 6.083 20.011 6.234 19.966 6.234 19.966 6.365 19.977 L6.496 19.988 6.622 20.164 C6.692 20.261 6.753 20.347 6.758 20.356 6.766 20.37 6.756 20.392 6.687 20.523 6.619 20.651 6.601 20.678 6.567 20.707 6.545 20.726 6.496 20.766 6.458 20.796 6.396 20.845 6.38 20.854 6.31 20.876 6.266 20.889 6.202 20.909 6.168 20.919 6.134 20.928 6.033 20.951 5.945 20.969 5.857 20.987 5.725 21.015 5.652 21.031 5.519 21.059 5.519 21.059 5.229 21.26 5.069 21.371 4.826 21.539 4.69 21.633 4.462 21.791 4.44 21.808 4.422 21.843 4.411 21.864 4.376 21.913 4.344 21.952 4.293 22.015 4.268 22.037 4.154 22.118 4.082 22.169 3.956 22.259 3.873 22.318 3.723 22.424 3.723 22.424 3.575 22.47 3.451 22.508 3.402 22.52 3.285 22.535 3.208 22.546 3.132 22.556 3.117 22.558 3.1 22.56 3.06 22.552 3.006 22.536 2.93 22.512 2.917 22.505 2.854 22.454 2.807 22.416 2.77 22.377 2.737 22.331 2.696 22.273 2.686 22.252 2.66 22.167 2.631 22.07 2.631 22.07 2.661 21.822 2.69 21.574 2.69 21.574 2.718 21.548 2.734 21.534 2.856 21.444 2.991 21.348 3.236 21.175 3.236 21.175 3.398 21.153 3.55 21.134 3.573 21.132 3.743 21.137 L3.926 21.142 Z M3.16 18.515 C3.485 18.596 3.485 18.596 3.518 18.572 3.536 18.56 3.602 18.513 3.664 18.468 3.755 18.403 3.79 18.383 3.84 18.367 3.874 18.355 3.95 18.332 4.008 18.314 4.066 18.296 4.214 18.257 4.338 18.227 4.461 18.197 4.677 18.144 4.817 18.11 4.958 18.075 5.185 18.026 5.323 18 5.546 17.959 5.602 17.952 5.818 17.935 6.061 17.915 6.061 17.915 6.149 17.942 6.198 17.957 6.248 17.975 6.261 17.983 6.282 17.995 6.288 18.011 6.334 18.156 L6.384 18.316 6.343 18.397 C6.32 18.442 6.294 18.483 6.286 18.489 6.277 18.494 6.205 18.518 6.125 18.542 5.981 18.585 5.981 18.585 5.934 18.631 5.898 18.666 5.857 18.693 5.766 18.742 5.687 18.784 5.618 18.828 5.571 18.866 5.53 18.899 5.482 18.938 5.464 18.952 5.43 18.978 5.43 18.978 5.367 18.944 5.305 18.911 5.304 18.911 5.274 18.922 5.258 18.928 5.18 18.966 5.101 19.005 5.022 19.044 4.885 19.106 4.797 19.143 4.709 19.179 4.567 19.238 4.482 19.273 4.398 19.308 4.234 19.375 4.119 19.423 3.91 19.509 3.91 19.509 3.864 19.484 3.839 19.471 3.816 19.462 3.813 19.466 3.809 19.47 3.774 19.534 3.735 19.609 3.695 19.685 3.657 19.752 3.65 19.758 3.643 19.765 3.524 19.805 3.387 19.846 3.137 19.921 3.137 19.921 2.863 19.958 2.713 19.978 2.567 19.995 2.539 19.997 2.488 20 2.488 20 2.352 19.886 2.215 19.772 2.215 19.772 2.16 19.681 2.11 19.598 2.1 19.574 2.059 19.44 2.019 19.307 2.015 19.286 2.02 19.247 2.023 19.224 2.031 19.195 2.039 19.182 2.047 19.17 2.075 19.134 2.102 19.102 2.129 19.069 2.197 18.992 2.254 18.93 2.357 18.816 2.357 18.816 2.622 18.708 2.767 18.649 2.948 18.581 3.023 18.557 L3.16 18.515 Z M7.459 14.335 C7.996 14.348 7.996 14.348 8.088 14.397 8.173 14.443 8.182 14.45 8.22 14.502 8.242 14.533 8.264 14.568 8.269 14.58 8.275 14.597 8.274 14.604 8.264 14.615 8.256 14.622 8.231 14.634 8.207 14.641 8.181 14.649 8.136 14.675 8.097 14.703 8.029 14.752 8.029 14.752 7.939 14.747 7.889 14.745 7.791 14.732 7.723 14.72 7.654 14.707 7.534 14.682 7.457 14.665 7.38 14.648 7.272 14.623 7.219 14.611 7.165 14.598 7.119 14.59 7.115 14.593 7.112 14.596 7.117 14.621 7.126 14.648 7.141 14.699 7.141 14.699 7.067 14.768 7.026 14.806 6.963 14.873 6.927 14.916 6.891 14.96 6.823 15.034 6.776 15.079 6.691 15.162 6.691 15.162 6.613 15.186 6.57 15.199 6.463 15.221 6.375 15.235 6.287 15.248 6.197 15.26 6.176 15.262 6.152 15.264 6.008 15.243 5.797 15.206 5.583 15.17 5.448 15.143 5.433 15.135 5.42 15.127 5.34 15.076 5.256 15.021 5.102 14.921 5.102 14.921 5.008 14.788 4.914 14.656 4.914 14.656 4.909 14.545 4.905 14.435 4.905 14.433 4.932 14.352 4.953 14.284 4.969 14.254 5.019 14.18 5.053 14.13 5.095 14.069 5.114 14.043 5.144 13.999 5.154 13.992 5.259 13.936 5.371 13.876 5.371 13.876 5.578 13.883 5.692 13.887 5.836 13.895 5.897 13.901 6.006 13.911 6.014 13.91 6.171 13.889 6.322 13.868 6.343 13.867 6.512 13.871 6.691 13.876 6.691 13.876 6.818 13.922 6.901 13.952 6.989 13.992 7.077 14.039 7.203 14.107 7.215 14.115 7.334 14.222 L7.459 14.335 Z" fill="#0072b8" fill-opacity="1" stroke="none"/>
 <path id="yellow" d="M13.55 16.801 C13.575 16.76 13.601 16.72 13.627 16.68 13.601 16.72 13.575 16.76 13.55 16.801 Z M13.627 16.68 C13.635 16.666 13.644 16.652 13.653 16.639 L13.501 16.578 13.251 16.187 13.207 15.851 13.056 15.547 12.921 15.297 12.679 15.08 12.471 14.969 12.385 14.878 12.352 14.772 11.602 14.418 10.779 14.203 10.57 14.092 10.271 14.067 9.795 14.038 9.599 14.156 9.422 14.152 9.16 14.057 8.836 14.331 8.833 14.339 8.641 14.014 8.361 13.945 8.028 13.81 7.733 13.725 7.388 13.676 6.61 13.259 5.821 12.928 5.093 12.474 4.735 12.204 4.624 12.056 4.574 11.785 4.598 11.613 4.709 11.452 4.82 11.292 5.14 11.205 5.312 11.229 5.436 11.291 5.756 11.512 6.201 12.102 6.756 12.224 7.003 12.347 7.237 12.555 7.656 12.702 8.064 12.935 8.816 13.525 9.001 13.463 9.161 13.266 9.283 13.019 9.332 12.674 9.331 12.058 9.588 11.478 9.907 10.775 10.078 10.492 10.25 10.208 10.546 9.985 10.829 9.849 10.938 9.381 11.233 8.85 11.405 8.567 11.602 8.418 11.922 8.331 12.23 8.331 12.588 8.601 12.859 8.859 13.032 9.191 12.972 9.623 13.021 9.586 14.155 9.657 14.684 9.643 15.19 9.802 15.689 9.483 15.792 9.271 15.869 9.084 16.125 9.098 16.329 9.086 16.567 9.797 C16.777 10.926 16.887 12.951 15.518 14.526 L15.447 14.545 15.386 14.668 15.385 14.672 C15.294 14.769 15.197 14.863 15.094 14.955 14.499 15.486 14.017 16.077 13.627 16.68 Z M8.28 11.316 L7.96 11.271 7.531 10.999 7.342 10.846 7.238 10.708 7.257 10.694 7.284 10.502 7.005 10.518 6.872 10.426 6.761 10.279 6.588 10.16 6.469 10.101 6.204 9.849 5.963 9.634 5.427 9.337 4.866 8.997 4.641 8.796 4.479 8.582 4.555 8.317 4.635 8.042 4.9 7.842 5.025 7.819 5.224 7.752 5.244 7.737 5.366 7.821 5.522 7.929 5.786 8.179 6.351 8.929 6.565 9.004 7.419 9.829 8.026 10.005 8.536 10.201 8.686 10.589 8.763 10.873 8.47 11.236 8.39 11.296 8.28 11.316 Z M9.293 9.215 L9.161 9.197 8.915 9.162 8.654 9.004 8.478 8.77 8.114 8.183 6.93 7.344 6.834 7.33 6.639 7.262 6.014 6.831 5.801 6.548 5.637 6.234 5.625 6.039 5.692 5.85 5.791 5.706 5.968 5.572 6.518 5.445 6.815 5.649 7.122 5.861 7.285 6.175 7.416 6.565 7.801 6.756 8.099 7.052 8.669 7.808 8.849 7.834 9.298 8.234 9.509 8.514 9.585 8.793 9.293 9.215 Z M15.86 8.599 L15.827 8.594 15.763 8.509 15.612 8.405 15.558 8.245 15.509 7.979 15.433 7.378 15.326 7.458 15.111 7.352 14.902 7.279 14.673 7.165 14.574 7.033 14.371 6.665 14.298 6.269 14.225 5.876 14.329 5.433 14.433 5.283 14.532 5.138 14.738 5.051 14.939 5.039 15.295 5.131 15.505 5.317 15.624 5.67 15.711 5.994 15.885 6.327 16.004 6.682 16.005 6.975 15.958 7.307 15.818 7.655 15.949 8.047 16.006 8.217 15.974 8.445 15.879 8.584 15.86 8.599 Z M11.275 8.042 L11.07 8.014 11.012 7.937 10.938 7.838 10.855 7.728 10.725 7.663 10.493 7.456 10.241 7.304 10.264 7.141 9.968 6.859 9.115 5.926 9.132 5.806 8.981 5.785 8.749 5.752 8.398 5.286 8.067 4.651 8.131 4.469 8.2 4.27 8.348 4.087 8.588 3.907 8.624 3.879 8.727 3.86 8.921 3.928 9.237 4.056 9.684 4.549 9.854 4.776 9.893 5.145 10.079 5.272 10.23 5.377 10.446 5.664 11.062 6.583 11.343 7.057 11.572 7.56 11.584 7.763 11.576 7.816 11.499 7.873 11.401 7.948 11.275 8.042 Z" fill="#fcb900" fill-opacity="1" stroke="none"/>
 <path id="Shape-2" d="M23.771 23.19 C23.893 23.594 23.893 23.594 23.884 23.732 23.878 23.809 23.871 23.887 23.868 23.907 23.863 23.934 23.848 23.961 23.802 24.022 23.749 24.092 23.732 24.109 23.664 24.154 23.59 24.203 23.579 24.207 23.44 24.247 23.359 24.27 23.277 24.291 23.258 24.293 23.236 24.295 23.178 24.287 23.107 24.272 22.991 24.248 22.991 24.248 22.876 24.146 22.813 24.091 22.704 23.988 22.633 23.919 22.511 23.799 22.496 23.787 22.358 23.7 22.238 23.624 22.187 23.586 22.079 23.49 21.946 23.373 21.946 23.373 21.878 23.256 21.838 23.186 21.788 23.083 21.752 22.997 21.694 22.855 21.694 22.855 21.668 22.676 21.642 22.497 21.642 22.497 21.597 22.458 21.572 22.436 21.502 22.374 21.442 22.321 21.381 22.268 21.308 22.203 21.279 22.177 21.229 22.131 21.225 22.124 21.187 22.031 21.147 21.934 21.147 21.934 21.152 21.851 21.158 21.771 21.159 21.767 21.18 21.751 21.202 21.735 21.202 21.735 21.246 21.754 21.277 21.768 21.313 21.776 21.376 21.781 21.46 21.788 21.464 21.79 21.498 21.818 21.518 21.834 21.552 21.864 21.573 21.886 21.595 21.908 21.649 21.968 21.691 22.02 21.734 22.071 21.84 22.206 21.925 22.319 22.047 22.48 22.083 22.522 22.09 22.514 22.095 22.508 22.106 22.486 22.115 22.465 22.131 22.428 22.134 22.425 22.165 22.421 22.184 22.418 22.236 22.413 22.281 22.411 22.326 22.408 22.411 22.397 22.469 22.387 22.527 22.376 22.626 22.364 22.69 22.36 22.805 22.353 22.805 22.353 22.881 22.386 22.923 22.404 23.031 22.465 23.122 22.52 23.288 22.621 23.288 22.621 23.529 22.905 L23.771 23.19 Z M28.355 21.95 C28.313 21.952 28.282 21.944 28.016 21.857 27.854 21.804 27.67 21.738 27.606 21.71 27.489 21.66 27.489 21.66 27.39 21.523 27.297 21.396 27.289 21.386 27.261 21.381 27.244 21.378 27.157 21.369 27.067 21.363 26.904 21.35 26.904 21.35 26.735 21.277 26.642 21.238 26.451 21.148 26.311 21.079 26.17 21.009 25.971 20.912 25.869 20.862 25.767 20.812 25.58 20.712 25.453 20.641 25.259 20.533 25.189 20.488 25.008 20.358 24.793 20.204 24.793 20.204 24.74 20.123 24.711 20.078 24.685 20.029 24.683 20.015 24.679 19.994 24.692 19.957 24.745 19.832 24.811 19.676 24.811 19.676 24.9 19.638 24.986 19.601 24.989 19.601 25.02 19.611 25.037 19.617 25.106 19.646 25.173 19.674 25.295 19.727 25.295 19.727 25.378 19.727 25.443 19.727 25.49 19.733 25.591 19.754 25.684 19.773 25.744 19.781 25.797 19.782 25.838 19.782 25.901 19.785 25.937 19.788 26.003 19.793 26.003 19.793 26.031 19.859 26.046 19.895 26.064 19.927 26.07 19.931 26.077 19.934 26.158 19.955 26.25 19.977 26.357 20.002 26.579 20.067 26.861 20.157 27.105 20.234 27.361 20.315 27.43 20.337 27.555 20.377 27.555 20.377 27.578 20.427 27.599 20.472 27.603 20.477 27.618 20.472 27.628 20.469 27.699 20.441 27.777 20.409 27.86 20.374 27.926 20.352 27.938 20.353 27.948 20.355 28.064 20.402 28.195 20.457 28.434 20.558 28.434 20.558 28.703 20.729 28.851 20.823 28.98 20.907 28.989 20.917 29.003 20.93 29.013 20.968 29.04 21.115 29.073 21.296 29.073 21.296 29.056 21.405 29.041 21.505 29.035 21.524 28.976 21.663 28.917 21.802 28.909 21.815 28.874 21.844 28.84 21.873 28.829 21.877 28.741 21.894 28.688 21.905 28.59 21.921 28.523 21.93 28.457 21.939 28.381 21.948 28.355 21.95 Z M24.143 13.727 C24.25 13.648 24.311 13.604 24.346 13.578 24.411 13.531 24.411 13.531 24.579 13.507 24.671 13.494 24.809 13.468 24.887 13.449 24.987 13.424 25.072 13.396 25.184 13.352 25.34 13.29 25.34 13.29 25.754 13.278 26.168 13.266 26.168 13.266 26.559 13.216 26.949 13.166 26.949 13.166 27.352 13.18 27.701 13.192 27.783 13.197 27.958 13.219 28.152 13.243 28.163 13.245 28.242 13.277 28.324 13.311 28.324 13.311 28.411 13.412 28.488 13.502 28.5 13.521 28.527 13.588 28.556 13.663 28.556 13.663 28.543 13.845 L28.529 14.027 28.419 14.138 C28.31 14.249 28.31 14.249 28.231 14.28 28.172 14.303 28.136 14.312 28.09 14.316 28.052 14.319 27.954 14.314 27.843 14.305 27.658 14.29 27.658 14.29 27.397 14.179 27.254 14.118 27.112 14.057 27.081 14.045 27.025 14.021 27.025 14.021 26.775 14.101 26.524 14.18 26.524 14.18 26.394 14.189 26.265 14.197 26.265 14.197 26.119 14.168 25.973 14.138 25.973 14.138 25.779 14.175 25.586 14.211 25.584 14.211 25.373 14.216 25.16 14.221 25.16 14.221 24.704 14.156 L24.248 14.091 24.187 14.157 C24.126 14.223 24.126 14.223 24.109 14.332 24.094 14.428 24.093 14.458 24.097 14.574 24.103 14.707 24.103 14.707 24.165 14.861 24.209 14.968 24.251 15.055 24.305 15.148 24.348 15.221 24.413 15.334 24.449 15.397 24.516 15.513 24.516 15.513 24.547 15.802 24.564 15.96 24.594 16.252 24.614 16.449 24.649 16.809 24.649 16.809 24.644 17.125 24.639 17.441 24.639 17.441 24.57 17.604 24.508 17.748 24.491 17.78 24.419 17.886 L24.337 18.006 24.403 18.223 24.469 18.441 24.471 18.875 C24.473 19.309 24.473 19.309 24.426 19.42 24.379 19.531 24.379 19.531 24.27 19.64 24.165 19.744 24.154 19.752 24.036 19.821 L23.911 19.893 23.704 19.868 C23.539 19.848 23.46 19.834 23.322 19.801 23.148 19.759 23.148 19.759 23.003 19.667 22.857 19.574 22.857 19.574 22.836 19.527 22.825 19.502 22.793 19.424 22.766 19.355 22.739 19.287 22.713 19.227 22.709 19.223 22.705 19.218 22.698 19.221 22.689 19.232 22.682 19.241 22.462 19.355 22.198 19.487 21.794 19.689 21.688 19.745 21.515 19.852 21.31 19.977 21.31 19.977 21.075 20.029 20.93 20.061 20.835 20.085 20.827 20.093 20.82 20.1 20.757 20.211 20.686 20.339 20.616 20.468 20.557 20.578 20.556 20.584 20.555 20.589 20.586 20.643 20.625 20.703 L20.697 20.812 20.657 20.92 C20.617 21.029 20.617 21.029 20.617 21.186 20.617 21.344 20.617 21.344 20.522 21.549 20.47 21.662 20.411 21.787 20.392 21.828 20.355 21.902 20.355 21.902 20.32 21.903 20.301 21.904 20.212 21.9 20.123 21.894 19.979 21.885 19.959 21.882 19.938 21.867 19.925 21.857 19.909 21.833 19.901 21.81 19.892 21.788 19.872 21.748 19.855 21.722 19.838 21.696 19.809 21.644 19.791 21.607 19.773 21.57 19.741 21.505 19.72 21.463 19.699 21.421 19.648 21.323 19.608 21.246 19.567 21.169 19.516 21.07 19.494 21.027 19.472 20.984 19.402 20.847 19.339 20.723 19.276 20.598 19.189 20.422 19.146 20.332 19.104 20.242 19.035 20.094 18.994 20.004 18.953 19.914 18.892 19.775 18.858 19.695 18.823 19.616 18.767 19.482 18.733 19.398 18.699 19.315 18.645 19.179 18.613 19.098 18.582 19.016 18.533 18.886 18.505 18.809 18.478 18.731 18.431 18.598 18.403 18.512 18.374 18.426 18.33 18.285 18.304 18.199 18.278 18.113 18.239 17.974 18.217 17.891 18.196 17.807 18.164 17.677 18.147 17.602 18.13 17.526 18.106 17.407 18.093 17.336 18.08 17.265 18.061 17.141 18.051 17.061 18.04 16.98 18.027 16.852 18.022 16.776 18.017 16.69 18.015 16.563 18.018 16.445 18.02 16.34 18.028 16.214 18.035 16.165 18.042 16.116 18.056 16.034 18.067 15.982 18.078 15.93 18.101 15.845 18.118 15.793 18.135 15.741 18.173 15.65 18.203 15.59 18.233 15.53 18.28 15.449 18.308 15.41 18.336 15.371 18.388 15.303 18.425 15.258 18.461 15.213 18.529 15.134 18.576 15.082 18.623 15.03 18.695 14.956 18.737 14.916 18.778 14.877 18.854 14.809 18.904 14.765 18.955 14.721 19.044 14.649 19.104 14.605 19.163 14.56 19.258 14.493 19.315 14.455 19.371 14.417 19.462 14.359 19.516 14.327 19.569 14.295 19.67 14.238 19.738 14.201 19.807 14.164 19.918 14.109 19.984 14.078 20.051 14.047 20.158 14 20.223 13.973 20.287 13.946 20.394 13.904 20.461 13.879 20.527 13.855 20.635 13.817 20.699 13.796 20.764 13.775 20.883 13.738 20.965 13.715 21.046 13.691 21.178 13.657 21.258 13.637 21.338 13.618 21.482 13.587 21.578 13.567 21.675 13.548 21.814 13.523 21.887 13.512 21.96 13.5 22.072 13.484 22.137 13.476 22.201 13.468 22.31 13.457 22.379 13.453 22.448 13.449 22.578 13.44 22.669 13.433 22.834 13.421 22.834 13.421 23.056 13.449 23.177 13.465 23.377 13.493 23.5 13.512 23.723 13.548 23.723 13.548 23.933 13.637 L24.143 13.727 Z M29.199 19.506 C28.944 19.345 28.892 19.305 28.773 19.201 L28.629 19.074 28.43 19.086 C28.23 19.098 28.23 19.098 28.035 19.046 27.866 19.001 27.815 18.983 27.654 18.915 27.552 18.872 27.385 18.801 27.283 18.757 27.181 18.713 27.083 18.672 27.066 18.666 27.034 18.654 27.032 18.654 26.96 18.683 26.904 18.706 26.88 18.712 26.855 18.709 26.838 18.706 26.712 18.681 26.575 18.652 26.326 18.6 26.324 18.6 26.175 18.537 26.024 18.474 26.024 18.474 25.927 18.376 L25.83 18.277 25.844 18.098 C25.852 17.999 25.862 17.89 25.865 17.857 25.871 17.795 25.871 17.795 26.035 17.729 26.199 17.663 26.199 17.663 26.348 17.666 26.496 17.669 26.496 17.669 26.62 17.722 26.688 17.752 26.808 17.81 26.888 17.853 26.967 17.895 27.094 17.964 27.17 18.005 27.309 18.08 27.309 18.08 27.662 18.113 27.857 18.132 28.16 18.16 28.336 18.177 28.655 18.206 28.657 18.206 28.693 18.192 28.714 18.184 28.777 18.169 28.834 18.158 28.937 18.138 28.937 18.138 29.291 18.166 29.645 18.194 29.645 18.194 29.797 18.259 29.92 18.311 29.975 18.34 30.086 18.41 30.189 18.476 30.229 18.506 30.25 18.533 30.265 18.553 30.289 18.589 30.304 18.614 30.325 18.647 30.335 18.679 30.349 18.749 30.365 18.829 30.366 18.849 30.359 18.924 30.353 19 30.348 19.018 30.311 19.105 30.27 19.202 30.27 19.202 30.079 19.38 29.974 19.478 29.884 19.559 29.879 19.56 29.875 19.56 29.72 19.548 29.535 19.533 L29.199 19.506 Z M27.105 16.43 C26.613 16.552 26.476 16.58 26.316 16.606 26.196 16.626 26.078 16.642 26.055 16.643 26.012 16.645 26.012 16.645 25.852 16.514 25.763 16.443 25.653 16.345 25.607 16.298 L25.522 16.213 25.554 16.003 C25.576 15.859 25.593 15.777 25.606 15.742 25.622 15.702 25.635 15.683 25.665 15.657 25.694 15.632 25.738 15.61 25.846 15.566 25.988 15.507 25.988 15.507 26.246 15.519 26.417 15.528 26.535 15.537 26.597 15.548 26.659 15.558 26.714 15.573 26.758 15.592 26.794 15.607 26.829 15.624 26.835 15.629 26.84 15.634 26.857 15.675 26.871 15.72 26.888 15.773 26.9 15.801 26.908 15.8 26.914 15.8 26.962 15.771 27.016 15.735 27.113 15.672 27.113 15.672 27.188 15.677 27.251 15.681 27.273 15.686 27.344 15.716 27.416 15.746 27.437 15.751 27.52 15.759 27.571 15.763 27.642 15.765 27.677 15.762 27.736 15.758 27.755 15.761 27.903 15.797 27.991 15.818 28.133 15.85 28.217 15.868 28.371 15.9 28.371 15.9 28.691 15.895 28.868 15.892 29.138 15.893 29.293 15.898 29.573 15.905 29.575 15.905 29.706 15.933 29.811 15.955 29.86 15.971 29.951 16.009 30.031 16.043 30.066 16.061 30.071 16.073 30.075 16.082 30.105 16.198 30.138 16.33 L30.197 16.571 30.138 16.712 C30.078 16.854 30.078 16.854 30.001 16.929 29.959 16.97 29.908 17.023 29.888 17.046 29.853 17.088 29.853 17.088 29.737 17.09 29.673 17.092 29.596 17.09 29.566 17.086 29.536 17.083 29.44 17.063 29.352 17.041 29.193 17.002 29.187 17 28.793 16.832 28.395 16.662 28.395 16.662 28.313 16.677 28.267 16.685 28.209 16.691 28.184 16.691 28.15 16.69 27.988 16.653 27.621 16.56 L27.105 16.43 Z" fill="#2e7d32" fill-opacity="1" stroke="none"/>
 <path id="black" d="M17.779 30.036 L17.573 30.026 17.107 29.788 17.018 29.465 16.926 29.131 16.996 28.811 17.136 28.455 16.977 28.09 16.942 27.701 16.988 26.823 16.875 26.698 16.794 26.145 16.811 25.82 16.924 25.577 17.383 25.45 17.466 25.542 17.62 25.713 17.712 25.982 17.697 26.256 17.606 26.888 17.947 28.191 18.007 28.258 18.105 28.423 18.292 29.103 18.275 29.431 18.204 29.753 18.096 29.898 17.936 29.993 17.779 30.036 Z M14.995 29.662 L14.717 29.647 14.674 29.645 14.59 29.597 14.493 29.434 14.344 29.154 14.321 28.54 14.335 28.273 14.527 27.988 14.472 27.786 14.426 27.622 14.444 27.289 14.555 26.267 14.638 25.762 14.775 25.269 14.888 25.117 14.925 25.084 15.014 25.088 15.128 25.094 15.274 25.102 15.403 25.245 15.398 25.334 15.392 25.448 15.385 25.577 15.439 25.7 15.481 25.986 15.569 26.245 15.455 26.347 15.498 26.724 15.547 27.896 15.463 27.972 15.558 28.077 15.704 28.239 15.675 28.78 15.532 29.428 15.377 29.52 15.209 29.62 14.995 29.662 Z M19.996 29.064 L19.688 29.048 19.585 28.99 19.404 28.918 19.38 28.917 19.344 28.785 19.297 28.615 19.259 28.279 19.305 27.409 19.197 27.228 19.082 26.132 18.757 25.647 18.51 25.201 18.635 24.835 18.75 24.587 19.175 24.504 19.267 24.508 19.357 24.56 19.558 24.783 19.701 25.233 19.744 25.454 19.735 25.614 19.714 25.613 19.58 25.733 19.788 25.888 19.828 26.033 19.819 26.204 19.871 26.392 19.92 26.505 19.958 26.843 20.001 27.139 20.205 27.671 20.401 28.247 20.442 28.524 20.428 28.773 20.216 28.916 19.996 29.064 Z M21.55 26.642 L21.27 26.513 21.162 26.392 21.111 26.275 21.015 25.927 21.051 25.241 20.729 24.823 20.627 24.589 20.585 24.301 20.374 23.946 20.224 23.537 20.04 22.668 19.872 22.602 19.641 22.648 19.66 22.75 19.42 22.967 19.053 23.406 18.524 23.664 17.878 23.974 17.587 24.074 17.295 24.173 16.952 24.155 16.67 24.083 16.312 24.351 15.786 24.552 15.495 24.652 15.266 24.64 14.987 24.511 14.767 24.327 14.674 23.922 14.635 23.576 14.71 23.236 15.011 22.966 14.953 22.963 14.19 22.235 13.805 21.929 13.541 21.514 12.973 21.428 12.795 21.533 12.677 21.697 12.396 21.724 11.986 21.461 C12.076 21.161 13.468 16.649 15.901 17.645 17.054 18.117 18.139 19.303 18.899 20.303 18.689 20.026 18.453 19.735 18.198 19.448 L18.6 20.013 18.691 20.24 18.911 20.458 19.206 20.792 19.401 21.186 19.626 21.587 19.788 21.87 19.963 21.88 C19.966 21.885 19.976 21.903 19.976 21.903 19.976 21.903 19.963 21.88 19.942 21.844 19.939 21.839 19.94 21.84 19.937 21.835 19.949 21.856 19.957 21.869 19.963 21.88 L20.343 21.902 20.362 21.998 20.338 22.455 20.615 22.641 20.771 22.936 20.93 23.173 21.147 23.413 21.45 24.174 21.814 24.88 22.061 25.637 22.154 26.043 22.145 26.215 22.019 26.437 21.899 26.545 21.724 26.594 21.55 26.642 Z M18.899 20.303 C18.923 20.333 18.946 20.364 18.969 20.394 18.946 20.364 18.923 20.333 18.899 20.303 Z M18.969 20.394 C19.105 20.577 19.231 20.752 19.343 20.914 19.231 20.752 19.105 20.577 18.969 20.394 Z M19.343 20.914 C19.36 20.939 19.376 20.963 19.393 20.987 19.376 20.963 19.36 20.939 19.343 20.914 Z M11.225 25.225 L11.026 25.164 10.877 25.053 10.678 24.775 10.64 24.517 10.766 24.195 10.897 23.913 10.972 23.571 11.099 23.248 11.273 23.04 11.505 22.831 11.813 22.668 11.953 22.31 12.014 22.155 12.173 22.012 12.324 21.97 12.346 21.971 12.367 21.994 12.361 22.093 12.407 22.257 12.35 22.403 12.226 22.621 11.921 23.094 12.045 23.101 12.134 23.304 12.239 23.482 12.334 23.699 12.326 23.852 12.251 24.235 12.067 24.56 11.884 24.883 11.545 25.136 11.382 25.181 11.225 25.225 Z M19.881 21.738 C19.874 21.726 19.867 21.713 19.859 21.7 19.867 21.713 19.874 21.726 19.881 21.738 Z M19.877 21.736 C19.872 21.727 19.866 21.718 19.861 21.708 19.867 21.718 19.872 21.727 19.877 21.736 Z M19.833 21.663 C19.824 21.649 19.815 21.634 19.805 21.618 19.815 21.634 19.824 21.649 19.833 21.663 Z M19.838 21.661 C19.824 21.638 19.81 21.612 19.796 21.586 19.81 21.612 19.824 21.637 19.838 21.661 Z M19.711 21.468 C19.702 21.454 19.693 21.44 19.684 21.426 19.693 21.441 19.702 21.454 19.711 21.468 Z M19.639 21.356 C19.625 21.334 19.61 21.312 19.596 21.289 19.61 21.312 19.625 21.334 19.639 21.356 Z M19.596 21.289 C19.581 21.267 19.566 21.244 19.551 21.221 19.566 21.245 19.581 21.267 19.596 21.289 Z M19.55 21.219 C19.534 21.196 19.518 21.172 19.501 21.147 19.518 21.171 19.534 21.196 19.55 21.219 Z M19.501 21.147 C19.485 21.122 19.468 21.097 19.451 21.072 19.468 21.097 19.485 21.122 19.501 21.147 Z M19.451 21.072 C19.435 21.048 19.419 21.024 19.402 21 19.419 21.024 19.435 21.048 19.451 21.072 Z M19.364 20.769 C19.356 20.752 19.347 20.735 19.339 20.718 19.347 20.735 19.356 20.752 19.364 20.769 Z M19.117 20.261 C19.11 20.245 19.102 20.228 19.094 20.212 19.102 20.228 19.11 20.245 19.117 20.261 Z" fill="#272210" fill-opacity="1" stroke="none"/>
</svg>
